<svg width="14" height="14" viewBox="0 0 14 14" fill="none" xmlns="http://www.w3.org/2000/svg">
    <path d="M4.9885 6.61043L4.98836 6.61032C4.16924 5.99662 3.63766 5.01997 3.63766 3.91777C3.63766 2.10402 5.07439 0.625681 6.87103 0.557902L6.87149 0.55496H7.00004C8.85647 0.55496 10.3614 2.06096 10.3614 3.91726C10.3614 5.01895 9.82981 5.99542 9.01134 6.60916C9.01132 6.60918 9.0113 6.60919 9.01128 6.60921L8.83116 6.74442L9.04523 6.81482C9.04524 6.81482 9.04525 6.81482 9.04526 6.81483C9.86983 7.08578 10.6378 7.52127 11.3015 8.10107L11.3016 8.10112C11.4683 8.24689 11.4847 8.49092 11.3393 8.65726L11.339 8.65759C11.1928 8.82395 10.9489 8.83881 10.7831 8.69395L10.8818 8.58099L10.7831 8.69395C9.77098 7.8096 8.48189 7.30917 7.13935 7.27625H7.12751L7.12254 7.27643C7.08105 7.27796 7.03815 7.27953 6.99844 7.27953C6.95953 7.27953 6.91844 7.27802 6.87799 7.27653L6.87046 7.27625H6.85916C4.20636 7.34106 1.91039 9.24287 1.36808 11.8468L1.36802 11.8471C1.32763 12.0393 1.37689 12.2406 1.50073 12.3934L1.51886 12.4157C1.60011 12.5064 1.76396 12.6326 2.00107 12.6326H6.51285C6.73373 12.6326 6.90676 12.8061 6.90676 13.027C6.90676 13.2492 6.73306 13.421 6.51285 13.421H2.00107C1.56648 13.421 1.16338 13.2288 0.889388 12.892L0.889363 12.892C0.613589 12.5528 0.507935 12.1163 0.597497 11.6872L4.9885 6.61043ZM4.9885 6.61043L5.16891 6.74525M4.9885 6.61043L5.16891 6.74525M7.86134 11.0611L7.96608 10.9537L7.96615 10.9537C7.96617 10.9538 7.96619 10.9538 7.96621 10.9538L9.59848 12.5462L9.60679 12.5543L9.60701 12.5546C9.71308 12.6487 9.83821 12.6606 9.90488 12.6559L9.90545 12.6559C9.97138 12.6515 10.091 12.6244 10.1837 12.5199L12.7176 8.98413L12.7177 8.98398C12.781 8.89586 12.8718 8.84018 12.9732 8.82387L13.0491 8.81167L13.0572 8.81973L9.94881 13.4437L9.95868 13.443C10.2896 13.4212 10.6005 13.2595 10.8093 13.0015L10.8046 13.0062L10.803 13.0078L10.802 13.0068M7.86134 11.0611C7.7629 10.9648 7.61306 10.967 7.51627 11.066C7.42002 11.1644 7.42166 11.3137 7.52009 11.4105L9.15529 13.0062C9.34998 13.1916 9.61139 13.295 9.87936 13.295C9.90616 13.295 9.92858 13.295 9.94717 13.2933M7.86134 11.0611L9.49374 12.6536M7.86134 11.0611L9.49374 12.6536M9.94717 13.2933V13.4433H9.94881V13.4436C9.95213 13.4434 9.95543 13.4432 9.95867 13.4429C9.95924 13.4428 9.9598 13.4428 9.96036 13.4427L9.95365 13.3667L9.94881 13.3119L9.94717 13.2933ZM9.94717 13.2933H9.94881C10.1958 13.2771 10.4305 13.1714 10.6076 13.0001C10.6241 13.0151 10.6423 13.0284 10.6566 13.035C10.681 13.041 10.7226 13.0417 10.739 13.0388C10.7494 13.0359 10.7664 13.0294 10.7731 13.0262C10.7855 13.0198 10.7942 13.0131 10.7972 13.0107C10.799 13.0093 10.8006 13.008 10.802 13.0068M10.802 13.0068C10.8026 13.0063 10.8032 13.0057 10.8037 13.0053C10.8047 13.0044 10.8055 13.0037 10.8061 13.0031C10.8085 13.0009 10.8105 12.9989 10.8118 12.9975C10.8124 12.9969 10.8129 12.9964 10.8132 12.9961L10.8147 12.9945L10.8152 12.9939L10.8159 12.9931L10.8169 12.9918L10.7443 12.9373L10.71 12.9116L10.6969 12.9018L10.7106 12.9154L10.7147 12.9196L10.802 13.0068ZM9.49374 12.6536L9.49538 12.6557C9.64413 12.7957 9.82186 12.8121 9.91538 12.8056C10.0062 12.7996 10.173 12.7624 10.3015 12.6131L9.49374 12.6536ZM5.16891 6.74525L4.95428 6.81591C4.95428 6.81591 4.95428 6.81592 4.95428 6.81592C4.19098 7.06718 3.47398 7.45838 2.84693 7.97401C1.69735 8.91932 0.899216 10.2389 0.597512 11.6872L5.16891 6.74525ZM4.42382 4.03523V3.91726C4.42382 2.5018 5.57967 1.34523 6.99477 1.34328L6.99477 1.34329H6.99887C8.41563 1.34329 9.57341 2.5001 9.57341 3.91727C9.57341 5.2906 8.48747 6.4205 7.12972 6.48822L7.1297 6.48794L7.12062 6.48895L7.11912 6.48912C7.07774 6.48803 7.03782 6.48748 6.99938 6.48748C6.97366 6.48748 6.94589 6.48799 6.91908 6.48848C6.90578 6.48872 6.89271 6.48896 6.88024 6.48912H6.87972L6.87813 6.48895L6.87816 6.48867L6.869 6.48822C5.60292 6.42538 4.60502 5.42448 4.47608 4.16989L4.46224 4.03523H4.42382Z" fill="#545F7D" stroke="#545F7D" stroke-width="0.3"/>
    </svg>
    