<svg width="100%" height="100%" viewBox="0 0 28 10" fill="none" xmlns="http://www.w3.org/2000/svg">
	<path d="M0.94997 5.35641C0.994502 5.47125 1.0613 5.57672 1.14684 5.66577L4.89684 9.41576C5.07263 9.59272 5.31285 9.6935 5.56248 9.6935C5.81211 9.6935 6.05232 9.59272 6.22812 9.41576C6.40508 9.23998 6.50586 8.99975 6.50586 8.75012C6.50586 8.50049 6.40508 8.26029 6.22812 8.08449L4.07187 5.93763H26.6562C27.1742 5.93763 27.5937 5.51811 27.5937 5.00013C27.5937 4.48215 27.1742 4.06263 26.6562 4.06263H4.07187L6.22812 1.91577C6.5961 1.54779 6.5961 0.952497 6.22812 0.584518C5.86014 0.216538 5.26485 0.216538 4.89687 0.584518L1.14687 4.33452C1.06133 4.42358 0.994532 4.52905 0.95 4.64388C0.901952 4.75638 0.876173 4.87708 0.875 5.00013C0.876172 5.12317 0.901953 5.24388 0.95 5.35638L0.94997 5.35641Z" fill="#545F7D" />
</svg>
