<svg width="18" height="23" viewBox="0 0 18 23" fill="none" xmlns="http://www.w3.org/2000/svg">
    <g clip-path="url(#clip0_170_223)">
    <path d="M17.625 13.0896L12.9 16.7459C12.545 17.02 12.1042 17.1691 11.65 17.169H0.5C0.367392 17.169 0.240215 17.118 0.146447 17.0274C0.0526784 16.9367 0 16.8137 0 16.6855V13.7846C0 13.6564 0.0526784 13.5334 0.146447 13.4427C0.240215 13.3521 0.367392 13.3011 0.5 13.3011H2.23125L3.68438 12.1619C4.3392 11.6482 5.15673 11.3676 6 11.3672H11C11.1458 11.367 11.2898 11.3975 11.4221 11.4567C11.5543 11.516 11.6716 11.6024 11.7657 11.7101C11.8598 11.8178 11.9284 11.944 11.9667 12.08C12.005 12.216 12.0121 12.3584 11.9875 12.4974C11.9063 12.9718 11.4437 13.3011 10.9469 13.3011H8.5C8.36739 13.3011 8.24021 13.3521 8.14645 13.4427C8.05268 13.5334 8 13.6564 8 13.7846C8 13.9128 8.05268 14.0358 8.14645 14.1265C8.24021 14.2172 8.36739 14.2681 8.5 14.2681H12.1969C12.6513 14.2692 13.0924 14.12 13.4469 13.8451L16.3344 11.612C16.7219 11.3098 17.2969 11.2887 17.6656 11.612C17.7744 11.7056 17.8606 11.821 17.9185 11.9502C17.9763 12.0794 18.0042 12.2192 18.0004 12.3599C17.9965 12.5006 17.9609 12.6388 17.8961 12.7649C17.8312 12.8909 17.7387 13.0017 17.625 13.0896V13.0896Z" fill="#213F7D"/>
    </g>
    <g clip-path="url(#clip1_170_223)">
    <path opacity="0.4" d="M7.75004 2.5437H10.25L11.1758 1.20053C11.2072 1.15503 11.2253 1.10214 11.228 1.0475C11.2307 0.992858 11.2181 0.938523 11.1914 0.890288C11.1647 0.842053 11.125 0.801728 11.0765 0.773613C11.0279 0.745499 10.9724 0.730651 10.9159 0.730652H7.08481C7.02823 0.730651 6.97272 0.745499 6.92419 0.773613C6.87566 0.801728 6.83594 0.842053 6.80925 0.890288C6.78256 0.938523 6.76992 0.992858 6.77267 1.0475C6.77541 1.10214 6.79345 1.15503 6.82485 1.20053L7.75004 2.5437ZM10.25 3.14806H7.75004C3.79731 5.3275 4.0018 8.22158 4.0018 8.58722C4.0018 9.58817 4.96098 10.4003 6.14399 10.4003H11.8565C13.0397 10.4003 13.9987 9.58817 13.9987 8.58722C13.9987 8.22838 14.1813 5.31541 10.25 3.14806Z" fill="#213F7D"/>
    <path d="M10.582 2.69479V2.99696C10.582 3.03704 10.5656 3.07547 10.5363 3.1038C10.507 3.13213 10.4672 3.14805 10.4258 3.14805H7.57422C7.53278 3.14805 7.49304 3.13213 7.46373 3.1038C7.43443 3.07547 7.41797 3.03704 7.41797 2.99696V2.69479C7.41797 2.65472 7.43443 2.61629 7.46373 2.58795C7.49304 2.55962 7.53278 2.5437 7.57422 2.5437H10.4258C10.4672 2.5437 10.507 2.55962 10.5363 2.58795C10.5656 2.61629 10.582 2.65472 10.582 2.69479Z" fill="#213F7D"/>
    <path d="M7.67198 8.10595V6.73842H7.125V6.32387H7.67198V4.96111H8.44563L9.21436 6.32387H9.7367V4.96111H10.328V6.32387H10.875V6.73842H10.328V8.10595H9.55437L8.77579 6.73842H8.2633V8.10595H7.67198ZM8.2633 6.28099V6.32387H8.53926L8.25345 5.76638H8.24852L8.2633 6.28099ZM9.74655 7.31498H9.75641L9.7367 6.81943V6.73842H9.44596L9.46567 6.76701L9.74655 7.31498Z" fill="#213F7D"/>
    </g>
    <defs>
    <clipPath id="clip0_170_223">
    <rect width="18" height="15.4714" fill="white" transform="translate(0 6.53241)"/>
    </clipPath>
    <clipPath id="clip1_170_223">
    <rect width="10" height="9.66962" fill="white" transform="translate(4 0.730652)"/>
    </clipPath>
    </defs>
    </svg>
    