<svg width="100%" height="100%" viewBox="0 0 4 16" fill="none" xmlns="http://www.w3.org/2000/svg">
	<path d="M1.99998 4.1111C2.9222 4.1111 3.66665 3.36666 3.66665 2.44444C3.66665 1.52222 2.9222 0.777771 1.99998 0.777771C1.07776 0.777771 0.333313 1.52222 0.333313 2.44444C0.333313 3.36666 1.07776 4.1111 1.99998 4.1111ZM1.99998 6.33333C1.07776 6.33333 0.333313 7.07777 0.333313 7.99999C0.333313 8.92221 1.07776 9.66666 1.99998 9.66666C2.9222 9.66666 3.66665 8.92221 3.66665 7.99999C3.66665 7.07777 2.9222 6.33333 1.99998 6.33333ZM1.99998 11.8889C1.07776 11.8889 0.333313 12.6333 0.333313 13.5555C0.333313 14.4778 1.07776 15.2222 1.99998 15.2222C2.9222 15.2222 3.66665 14.4778 3.66665 13.5555C3.66665 12.6333 2.9222 11.8889 1.99998 11.8889Z" fill="currentColor" />
</svg>
