<svg width="16" height="16" viewBox="0 0 16 16" fill="none" xmlns="http://www.w3.org/2000/svg">
	<g clip-path="url(#clip0_170_68)">
		<path opacity="0.4" d="M5.625 13.85H3C2.20435 13.85 1.44129 13.5444 0.87868 13.0004C0.31607 12.4563 0 11.7185 0 10.9491L0 5.14739C0 4.37803 0.31607 3.64019 0.87868 3.09617C1.44129 2.55215 2.20435 2.24652 3 2.24652H5.625C5.72446 2.24652 5.81984 2.28472 5.89016 2.35273C5.96049 2.42073 6 2.51296 6 2.60913V3.81783C6 3.914 5.96049 4.00623 5.89016 4.07423C5.81984 4.14223 5.72446 4.18044 5.625 4.18044H3C2.73478 4.18044 2.48043 4.28231 2.29289 4.46365C2.10536 4.64499 2 4.89094 2 5.14739V10.9491C2 11.2056 2.10536 11.4515 2.29289 11.6329C2.48043 11.8142 2.73478 11.9161 3 11.9161H5.625C5.72446 11.9161 5.81984 11.9543 5.89016 12.0223C5.96049 12.0903 6 12.1825 6 12.2787V13.4874C6 13.5836 5.96049 13.6758 5.89016 13.7438C5.81984 13.8118 5.72446 13.85 5.625 13.85V13.85Z" fill="#213F7D" />
		<path d="M11.0313 2.98085L15.7781 7.53159C15.8485 7.59902 15.9044 7.67927 15.9425 7.7677C15.9807 7.85613 16.0003 7.95099 16.0003 8.0468C16.0003 8.14261 15.9807 8.23747 15.9425 8.3259C15.9044 8.41433 15.8485 8.49458 15.7781 8.56201L11.0281 13.1188C10.8868 13.2534 10.6962 13.3287 10.4978 13.3281C10.2994 13.3275 10.1093 13.2512 9.96875 13.1158L9.28438 12.454C9.21298 12.3845 9.15683 12.3018 9.1193 12.2109C9.08177 12.1199 9.06363 12.0225 9.06596 11.9246C9.0683 11.8267 9.09106 11.7302 9.13289 11.641C9.17472 11.5518 9.23475 11.4717 9.30938 11.4055L11.7344 9.25701H5.75C5.65144 9.25725 5.5538 9.23865 5.4627 9.20229C5.37159 9.16593 5.28881 9.11252 5.21912 9.04513C5.14943 8.97774 5.09419 8.8977 5.05659 8.8096C5.01899 8.72151 4.99976 8.6271 5 8.53179V7.56483C4.99976 7.46953 5.01899 7.37512 5.05659 7.28702C5.09419 7.19893 5.14943 7.11888 5.21912 7.05149C5.28881 6.9841 5.37159 6.93069 5.4627 6.89433C5.5538 6.85797 5.65144 6.83938 5.75 6.83962H11.7344L9.30938 4.69116C9.23516 4.62492 9.17555 4.54488 9.1341 4.45582C9.09266 4.36677 9.07025 4.27054 9.0682 4.1729C9.06616 4.07527 9.08453 3.97824 9.12222 3.88763C9.1599 3.79703 9.21612 3.71472 9.2875 3.64564L9.97188 2.98388C10.1121 2.84785 10.3023 2.77114 10.5009 2.77057C10.6995 2.77001 10.8902 2.84563 11.0313 2.98085V2.98085Z" fill="#213F7D" />
	</g>
	<defs>
		<clipPath id="clip0_170_68">
			<rect width="16" height="15.4713" fill="white" transform="translate(0 0.312622)" />
		</clipPath>
	</defs>
</svg>
