<svg width="16" height="12" viewBox="0 0 16 12" fill="none" xmlns="http://www.w3.org/2000/svg">
	<path d="M15.4532 5.4401L15.4519 5.43844C15.0397 4.92183 14.0947 3.82504 12.7977 2.85585C11.4992 1.88563 9.83826 1.0361 7.99962 1.0361C6.16098 1.0361 4.50005 1.8856 3.2016 2.85581C1.90284 3.82626 0.957096 4.92465 0.545758 5.44047C0.274765 5.76662 0.277188 6.2343 0.544772 6.57367L0.544765 6.57367L0.54558 6.57468C0.956235 7.08186 1.90223 8.17692 3.20166 9.14588C4.50006 10.1141 6.16099 10.9636 7.99962 10.9636C9.83826 10.9636 11.4992 10.1141 12.7976 9.14379C14.0966 8.17315 15.0424 7.07444 15.4536 6.55837C15.7073 6.24949 15.7071 5.74923 15.4532 5.4401ZM7.99962 9.7561C6.48685 9.7561 5.06801 9.02252 3.92936 8.172C2.84495 7.362 2.02496 6.4537 1.63345 5.99809C2.01619 5.53082 2.83622 4.62239 3.92299 3.81583C5.06345 2.96942 6.48651 2.24346 7.99962 2.24346C9.51268 2.24346 10.9316 2.96936 12.0701 3.81575C13.1556 4.62284 13.9761 5.53202 14.3661 5.99978C13.9761 6.46752 13.1556 7.3767 12.0701 8.18379C10.9316 9.03019 9.51267 9.7561 7.99962 9.7561Z" fill="#545F7D" stroke="#545F7D" stroke-width="0.2" />
	<path d="M8.00014 2.90814C6.29675 2.90814 4.9083 4.29666 4.9083 5.99998C4.9083 7.7033 6.29682 9.09182 8.00014 9.09182C9.70346 9.09182 11.092 7.7033 11.092 5.99998C11.092 4.29666 9.70346 2.90814 8.00014 2.90814ZM8.00014 7.88382C6.96726 7.88382 6.11646 7.03236 6.11646 6.00014C6.11646 4.96724 6.96732 4.11646 8.00014 4.11646C9.03296 4.11646 9.88382 4.96732 9.88382 6.00014C9.88382 7.03296 9.03296 7.88382 8.00014 7.88382Z" fill="#545F7D" stroke="#545F7D" stroke-width="0.2" />
</svg>
